<?xml version="1.0" encoding="utf-8"?>
<!-- Generator: Adobe Illustrator 23.0.1, SVG Export Plug-In . SVG Version: 6.00 Build 0)  -->
<svg version="1.1" id="Layer_1" xmlns="http://www.w3.org/2000/svg" xmlns:xlink="http://www.w3.org/1999/xlink" x="0px" y="0px"
	 viewBox="0 0 261 100" style="enable-background:new 0 0 261 100;" xml:space="preserve">
<style type="text/css">
	.st0{fill:none;}
	.st1{fill:#344DA1;}
	.st2{font-family:'MyriadPro-Bold';}
	.st3{font-size:48px;}
	.st4{fill:#F04E23;}
	.st5{letter-spacing:-1;}
</style>
<rect x="74.9" y="54.9" class="st0" width="188.1" height="63"/>
<text transform="matrix(1 0 0 1 74.9241 88.9895)" class="st1 st2 st3">SOCIETY</text>
<rect x="52.5" y="19.6" class="st0" width="208.5" height="35.3"/>
<text transform="matrix(1 0 0 1 52.4579 53.7062)"><tspan x="0" y="0" class="st4 st2 st3">H</tspan><tspan x="33.1" y="0" class="st4 st2 st3">U</tspan><tspan x="64.8" y="0" class="st4 st2 st3 st5">M</tspan><tspan x="104.4" y="0" class="st4 st2 st3">AN</tspan><tspan x="167" y="0" class="st4 st2 st3">E</tspan></text>
<g>
	<path d="M42.2,14.8L40.8,19H39l4.6-13.5h2.1L50.3,19h-1.9L47,14.8H42.2z M46.6,13.4l-1.3-3.9c-0.3-0.9-0.5-1.7-0.7-2.5h0
		c-0.2,0.8-0.4,1.6-0.7,2.4l-1.3,3.9H46.6z"/>
	<path d="M52.3,5.7c0.9-0.2,2.1-0.3,3.3-0.3c1.9,0,3.1,0.3,3.9,1.1c0.7,0.6,1.1,1.5,1.1,2.6c0,1.8-1.1,3-2.5,3.4v0.1
		c1,0.4,1.7,1.3,2,2.7c0.4,1.9,0.8,3.2,1,3.7h-1.8c-0.2-0.4-0.5-1.5-0.9-3.2c-0.4-1.9-1.1-2.6-2.7-2.6H54V19h-1.7V5.7z M54,11.8h1.8
		c1.9,0,3-1,3-2.6c0-1.7-1.3-2.5-3.1-2.5c-0.8,0-1.4,0.1-1.7,0.2V11.8z"/>
	<path d="M63,19V5.5h1.9l4.3,6.8c1,1.6,1.8,3,2.4,4.4l0,0c-0.2-1.8-0.2-3.4-0.2-5.5V5.5h1.6V19h-1.8l-4.3-6.8
		c-0.9-1.5-1.8-3-2.5-4.5l-0.1,0c0.1,1.7,0.1,3.3,0.1,5.6V19H63z"/>
	<path d="M76.2,5.7c0.8-0.1,1.9-0.3,3.3-0.3c1.7,0,3,0.4,3.8,1.1c0.7,0.6,1.2,1.6,1.2,2.8c0,1.2-0.4,2.2-1,2.9
		c-0.9,1-2.4,1.5-4.1,1.5c-0.5,0-1,0-1.4-0.1V19h-1.7V5.7z M77.9,12.2c0.4,0.1,0.9,0.1,1.4,0.1c2.1,0,3.4-1,3.4-2.9
		c0-1.8-1.3-2.6-3.2-2.6c-0.8,0-1.3,0.1-1.6,0.1V12.2z"/>
	<path d="M86.8,5.7c0.9-0.2,2.1-0.3,3.3-0.3c1.9,0,3.1,0.3,3.9,1.1c0.7,0.6,1.1,1.5,1.1,2.6c0,1.8-1.1,3-2.5,3.4v0.1
		c1,0.4,1.7,1.3,2,2.7c0.4,1.9,0.8,3.2,1,3.7h-1.8c-0.2-0.4-0.5-1.5-0.9-3.2c-0.4-1.9-1.1-2.6-2.7-2.6h-1.6V19h-1.7V5.7z M88.6,11.8
		h1.8c1.9,0,3-1,3-2.6c0-1.7-1.3-2.5-3.1-2.5c-0.8,0-1.4,0.1-1.7,0.2V11.8z"/>
	<path d="M99.3,5.5V19h-1.7V5.5H99.3z"/>
	<path d="M113.9,12.1c0,4.6-2.8,7.1-6.3,7.1c-3.6,0-6.1-2.8-6.1-6.8c0-4.3,2.7-7.1,6.3-7.1C111.5,5.3,113.9,8.1,113.9,12.1z
		 M103.4,12.3c0,2.9,1.6,5.5,4.3,5.5c2.8,0,4.3-2.5,4.3-5.6c0-2.7-1.4-5.5-4.3-5.5C104.9,6.7,103.4,9.4,103.4,12.3z"/>
	<path d="M116.1,5.7c0.9-0.2,2.1-0.3,3.3-0.3c1.9,0,3.1,0.3,3.9,1.1c0.7,0.6,1.1,1.5,1.1,2.6c0,1.8-1.1,3-2.5,3.4v0.1
		c1,0.4,1.7,1.3,2,2.7c0.4,1.9,0.8,3.2,1,3.7h-1.8c-0.2-0.4-0.5-1.5-0.9-3.2c-0.4-1.9-1.1-2.6-2.7-2.6h-1.6V19h-1.7V5.7z
		 M117.9,11.8h1.8c1.9,0,3-1,3-2.6c0-1.7-1.3-2.5-3.1-2.5c-0.8,0-1.4,0.1-1.7,0.2V11.8z"/>
	<path d="M139.6,19c-0.4-0.4-0.7-0.8-1.3-1.3c-1.2,1.1-2.5,1.5-3.9,1.5c-2.6,0-4.1-1.8-4.1-3.8c0-1.8,1.1-3.1,2.6-3.9v-0.1
		c-0.7-0.9-1.1-1.9-1.1-2.8c0-1.6,1.2-3.3,3.4-3.3c1.7,0,3,1.1,3,2.9c0,1.4-0.8,2.5-3,3.6v0.1c1.1,1.3,2.4,2.8,3.3,3.8
		c0.6-0.9,1-2.2,1.3-3.9h1.6c-0.4,2.1-0.9,3.8-1.9,5c0.7,0.8,1.4,1.5,2.2,2.4H139.6z M137.5,16.7c-0.8-0.9-2.3-2.5-3.8-4.2
		c-0.7,0.5-1.7,1.3-1.7,2.7c0,1.5,1.1,2.7,2.8,2.7C135.8,17.9,136.8,17.4,137.5,16.7z M133.3,8.5c0,1,0.4,1.7,1,2.4
		c1.4-0.8,2.2-1.5,2.2-2.6c0-0.8-0.5-1.7-1.6-1.7C133.9,6.5,133.3,7.4,133.3,8.5z"/>
	<path d="M147.5,5.7c1.1-0.2,2.3-0.3,3.7-0.3c2.5,0,4.3,0.6,5.5,1.7c1.2,1.1,1.9,2.7,1.9,4.8c0,2.2-0.7,4-1.9,5.2
		c-1.3,1.3-3.3,1.9-6,1.9c-1.2,0-2.3-0.1-3.2-0.2V5.7z M149.2,17.6c0.4,0.1,1.1,0.1,1.8,0.1c3.7,0,5.7-2.1,5.7-5.7
		c0-3.2-1.8-5.2-5.5-5.2c-0.9,0-1.6,0.1-2,0.2V17.6z"/>
	<path d="M162.5,5.5V19h-1.7V5.5H162.5z"/>
	<path d="M165.3,16.9c0.8,0.5,1.9,0.9,3.1,0.9c1.8,0,2.8-0.9,2.8-2.3c0-1.3-0.7-2-2.5-2.7c-2.2-0.8-3.6-1.9-3.6-3.8
		c0-2.1,1.7-3.7,4.4-3.7c1.4,0,2.4,0.3,3,0.7L172,7.4c-0.4-0.2-1.3-0.6-2.6-0.6c-1.8,0-2.5,1.1-2.5,2c0,1.3,0.8,1.9,2.7,2.6
		c2.3,0.9,3.4,2,3.4,4c0,2.1-1.5,3.9-4.7,3.9c-1.3,0-2.7-0.4-3.4-0.9L165.3,16.9z"/>
	<path d="M178,7h-4.1V5.5h10V7h-4.1v12H178V7z"/>
	<path d="M185.4,5.7c0.9-0.2,2.1-0.3,3.3-0.3c1.9,0,3.1,0.3,3.9,1.1c0.7,0.6,1.1,1.5,1.1,2.6c0,1.8-1.1,3-2.5,3.4v0.1
		c1,0.4,1.7,1.3,2,2.7c0.4,1.9,0.8,3.2,1,3.7h-1.8c-0.2-0.4-0.5-1.5-0.9-3.2c-0.4-1.9-1.1-2.6-2.7-2.6h-1.6V19h-1.7V5.7z
		 M187.1,11.8h1.8c1.9,0,3-1,3-2.6c0-1.7-1.3-2.5-3.1-2.5c-0.8,0-1.4,0.1-1.7,0.2V11.8z"/>
	<path d="M197.9,5.5V19h-1.7V5.5H197.9z"/>
	<path d="M210.3,18.6c-0.6,0.3-1.9,0.6-3.6,0.6c-3.8,0-6.7-2.4-6.7-6.8c0-4.2,2.9-7.1,7-7.1c1.7,0,2.7,0.4,3.2,0.6l-0.4,1.4
		c-0.7-0.3-1.6-0.6-2.7-0.6c-3.2,0-5.3,2-5.3,5.6c0,3.3,1.9,5.4,5.2,5.4c1.1,0,2.1-0.2,2.8-0.6L210.3,18.6z"/>
	<path d="M215.6,7h-4.1V5.5h10V7h-4.1v12h-1.8V7z"/>
</g>
<g>
	<path d="M16,28.1H8c0,0-3.9-3.3-3.7-6.7c0,0-2-3.3,0-4.6c2-1.3,9.1-2.2,9.1-2.2S15.1,7,21,6.4s11.5,2.4,13.2,8s3.7,8.3,3.7,8.3
		s-14.8,8.3-19.5,17.8C18.4,40.5,15.4,38.1,16,28.1z"/>
	<path d="M59,59.6c-1.7-1.7-6.3-11.3-8.5-15.2C48.2,40.5,38,24.6,38,24.6S20.3,37.3,18.4,42.9c-1.9,5.5,5.2,14.8,5.2,14.8l-0.9,5.4
		l-0.4,15.6c0,0-3.9,2.4-5.6,3.9c-1.7,1.5,0,5.2,0,5.2h14.1c-3.7,3.4,1.5,7.8,1.5,7.8c1.1,0.3,2.1,0.6,3.1,0.8
		c-0.8-0.6-1.2-1.1-1.2-1.1s-1.5-2.8-0.3-4.9c1.2-2.1,4.1-2,4.1-2s2.3,0.9,0.9,2c0,0-3-0.7-3.5,1.1s0.3,3.7,4,3.9
		c3.7,0.2,10.9,0.5,10.6-7c0,0,1.1-1.5-3.8-1.8c-4.9-0.3-11.1-0.2-11.1-0.2l-0.7-2.1h-4.9l1.8-4.1c0,0,2-4.8,0.7-7.9
		c0,0-6.7-13.7,0-18.7V51c0,0,0.3-2-3-2.9c-3.3-0.9-0.9-3.5-0.9-3.5l1.5-0.9c0,0,2-4,4.4-3.7v-2.6l6.4,6.2v6.7c0,0,6,7,6.7,15
		c0,0,9.3,5.4,7,17.3c0,0-1,2.7-2,3.4c0,0,3.4,9-5.5,11.5c-0.6,0.2-1.2,0.3-1.8,0.4c13.7,0.4,16.8-7.7,16.8-7.7l10.8-2.2
		C74.3,77.8,60.8,61.3,59,59.6z"/>
</g>
</svg>
